<svg id="infor_link_fb" xmlns="http://www.w3.org/2000/svg" width="50" height="50.002" viewBox="0 0 50 50.002">
  <path id="Subtraction_1" data-name="Subtraction 1" d="M3216.45-5548H3203a10.012,10.012,0,0,1-10-10v-30a10.011,10.011,0,0,1,10-10h30a10.011,10.011,0,0,1,10,10v30a10.012,10.012,0,0,1-10,10h-6.158v-20.417h7.742v-8.541h-7.742v-1.657c0-3.429.485-3.667,3.178-4.987l.175-.085a14.275,14.275,0,0,1,4.355-.409h.035v-9.484l-.641.057-.484.042a25.658,25.658,0,0,0-3.091.391l-.852.144c-8.793,1.778-13.067,6.566-13.067,14.638v1.781h-4.67v8.111h4.67V-5548Z" transform="translate(-3193 5598)" fill="#353535"/>
</svg>
