<svg xmlns="http://www.w3.org/2000/svg" width="37.936" height="57.044" viewBox="0 0 37.936 57.044">
  <g id="works-map_map-pin-green" transform="translate(0)">
    <path id="Path_7" data-name="Path 7" d="M13,0c7.18,0,13,9.4,13,21S20.18,42,13,42,0,32.6,0,21,5.82,0,13,0Z" transform="translate(6 7)" fill="#fff"/>
    <path id="Path_6" data-name="Path 6" d="M39.665,5A18.773,18.773,0,0,0,20.7,23.572c0,13.929,18.968,38.471,18.968,38.471S58.633,37.5,58.633,23.572A18.773,18.773,0,0,0,39.666,5Zm0,27.446a8.875,8.875,0,1,1,9.062-8.873,8.969,8.969,0,0,1-9.062,8.873Z" transform="translate(-20.698 -5)" fill="#00a9a5"/>
  </g>
</svg>
